<mxfile host="app.diagrams.net" modified="2023-09-13T06:29:47.575Z" agent="Mozilla/5.0 (Windows NT 10.0; Win64; x64) AppleWebKit/537.36 (KHTML, like Gecko) Chrome/116.0.0.0 Safari/537.36" etag="LljwdqqkfZqdoHgKSe8U" version="21.6.5" type="device">
  <diagram name="Page-1" id="eYcn4fA6jk0fdUazm5nm">
    <mxGraphModel dx="880" dy="446" grid="1" gridSize="10" guides="1" tooltips="1" connect="1" arrows="1" fold="1" page="1" pageScale="1" pageWidth="827" pageHeight="1169" math="0" shadow="0">
      <root>
        <mxCell id="0" />
        <mxCell id="1" parent="0" />
        <mxCell id="rfOCm9NGOXbybvXL39Xd-7" style="edgeStyle=orthogonalEdgeStyle;rounded=0;orthogonalLoop=1;jettySize=auto;html=1;exitX=0.5;exitY=1;exitDx=0;exitDy=0;entryX=0.5;entryY=0;entryDx=0;entryDy=0;" edge="1" parent="1" source="rfOCm9NGOXbybvXL39Xd-1" target="rfOCm9NGOXbybvXL39Xd-3">
          <mxGeometry relative="1" as="geometry" />
        </mxCell>
        <mxCell id="rfOCm9NGOXbybvXL39Xd-1" value="Data Collection&lt;br&gt;&lt;br&gt;&lt;br&gt;&lt;br&gt;" style="rounded=1;whiteSpace=wrap;html=1;" vertex="1" parent="1">
          <mxGeometry x="120" y="80" width="160" height="80" as="geometry" />
        </mxCell>
        <mxCell id="rfOCm9NGOXbybvXL39Xd-2" value="Download Youtube Video" style="rounded=1;whiteSpace=wrap;html=1;" vertex="1" parent="1">
          <mxGeometry x="140" y="110" width="120" height="40" as="geometry" />
        </mxCell>
        <mxCell id="rfOCm9NGOXbybvXL39Xd-3" value="Data Preprocessing&lt;br&gt;&lt;br&gt;&lt;br&gt;&lt;br&gt;&lt;br&gt;&lt;br&gt;&lt;br&gt;&lt;br&gt;&lt;br&gt;" style="rounded=1;whiteSpace=wrap;html=1;" vertex="1" parent="1">
          <mxGeometry x="120" y="200" width="160" height="160" as="geometry" />
        </mxCell>
        <mxCell id="rfOCm9NGOXbybvXL39Xd-4" value="separate frames from video" style="rounded=1;whiteSpace=wrap;html=1;" vertex="1" parent="1">
          <mxGeometry x="140" y="240" width="120" height="40" as="geometry" />
        </mxCell>
        <mxCell id="rfOCm9NGOXbybvXL39Xd-6" value="separate face from frames" style="rounded=1;whiteSpace=wrap;html=1;" vertex="1" parent="1">
          <mxGeometry x="140" y="300" width="120" height="40" as="geometry" />
        </mxCell>
      </root>
    </mxGraphModel>
  </diagram>
</mxfile>
